<svg xmlns:dc="http://purl.org/dc/elements/1.1/" xmlns:cc="http://creativecommons.org/ns#" xmlns:rdf="http://www.w3.org/1999/02/22-rdf-syntax-ns#" xmlns:svg="http://www.w3.org/2000/svg" xmlns="http://www.w3.org/2000/svg" xmlns:sodipodi="http://sodipodi.sourceforge.net/DTD/sodipodi-0.dtd" xmlns:inkscape="http://www.inkscape.org/namespaces/inkscape" version="1.1" x="0px" y="0px" viewBox="0 0 100 100">
    <g transform="translate(0,-952.36218)">
        <path style="font-size:medium;font-style:normal;font-variant:normal;font-weight:normal;font-stretch:normal;text-indent:0;text-align:start;text-decoration:none;line-height:normal;letter-spacing:normal;word-spacing:normal;text-transform:none;direction:ltr;block-progression:tb;writing-mode:lr-tb;text-anchor:start;baseline-shift:baseline;opacity:1;color:#313537;fill:#313537;fill-opacity:1;stroke:none;stroke-width:2;marker:none;visibility:visible;display:inline;overflow:visible;enable-background:accumulate;font-family:Sans;-inkscape-font-specification:Sans" d="M 50 12 C 29.04871 12 12 29.0487 12 50 A 3.0003 3.0003 0 1 0 18 50 C 18 32.29134 32.29135 18 50 18 C 67.70865 18 82 32.29134 82 50 C 82 67.7087 67.708653 82 50 82 C 43.379645 82 36.735185 79.370083 31.34375 75.46875 L 38.21875 74.96875 A 3.0019932 3.0019932 0 0 0 38 68.96875 A 3.0003 3.0003 0 0 0 37.78125 69 L 23.78125 70 A 3.0003 3.0003 0 0 0 21.0625 73.625 L 24.0625 87.625 A 3.0065386 3.0065386 0 1 0 29.9375 86.34375 L 28.78125 81 C 34.862562 85.189758 42.22999 88 50 88 C 70.951287 88 88 70.9513 88 50 C 88 29.0487 70.95129 12 50 12 z " transform="translate(0,952.36218)"/>
    </g>
</svg>